<svg xmlns="http://www.w3.org/2000/svg" version="1.1" xmlns:xlink="http://www.w3.org/1999/xlink" xmlns:svgjs="http://svgjs.dev/svgjs" width="2000" height="2000" viewBox="0 0 2000 2000"><g transform="matrix(1,0,0,1,0,0)"><svg viewBox="0 0 280 280" data-background-color="#000000" preserveAspectRatio="xMidYMid meet" height="2000" width="2000" xmlns="http://www.w3.org/2000/svg" xmlns:xlink="http://www.w3.org/1999/xlink"><g id="tight-bounds" transform="matrix(1,0,0,1,0,0)"><svg viewBox="0 0 280 280" height="280" width="280"><g><svg viewBox="0 0 280 280" height="280" width="280"><g><svg viewBox="0 0 280 280" height="280" width="280"><g id="textblocktransform"><svg viewBox="0 0 280 280" height="280" width="280" id="textblock"><g><svg viewBox="0 0 280 280" height="280" width="280"><g transform="matrix(1,0,0,1,57.50420886156945,57.50420886156945)"><svg viewBox="0 0 164.9915822768611 164.9915822768611" height="164.9915822768611" width="164.9915822768611"><g id="icon-0"><svg xmlns="http://www.w3.org/2000/svg" xmlns:xlink="http://www.w3.org/1999/xlink" version="1.1" x="24.74873734152917" y="24.748737341529164" viewBox="18 13 28 39" enable-background="new 0 0 64 64" xml:space="preserve" height="115.49410759380275" width="115.49410759380275" class="icon-jxe-0" data-fill-palette-color="quaternary" id="jxe-0"><path d="M32 52C31.722 52 31.457 51.884 31.267 51.681 30.726 51.097 18 37.274 18 27 18 19.28 24.28 13 32 13S46 19.28 46 27C46 37.274 33.274 51.097 32.733 51.681 32.543 51.884 32.278 52 32 52M32 15C25.383 15 20 20.383 20 27 20 35.146 29.29 46.391 32 49.497 34.71 46.391 44 35.146 44 27 44 20.383 38.617 15 32 15" fill="#000000" data-fill-palette-color="quaternary"></path><path d="M32 36C27.038 36 23 31.962 23 27S27.038 18 32 18C36.963 18 41 22.038 41 27S36.963 36 32 36M32 20C28.14 20 25 23.14 25 27S28.14 34 32 34 39 30.86 39 27 35.859 20 32 20" fill="#000000" data-fill-palette-color="quaternary"></path><path d="M34 26H33V25A1 1 0 0 0 31 25V26H30A1 1 0 0 0 30 28H31V29A1 1 0 0 0 33 29V28H34A1 1 0 1 0 34 26" fill="#000000" data-fill-palette-color="quaternary"></path></svg></g></svg></g><g id="text-0"></g><g id="text-1"></g></svg></g></svg></g></svg></g><g></g></svg></g><defs></defs><mask id="183d403e-a42f-49d8-95bd-c21c9642f827"><g id="SvgjsG4667"><svg viewBox="0 0 280 280" height="280" width="280"><g><svg viewBox="0 0 280 280" height="280" width="280"><g><svg viewBox="0 0 280 280" height="280" width="280"><g id="SvgjsG4666"><svg viewBox="0 0 280 280" height="280" width="280" id="SvgjsSvg4665"><g><svg viewBox="0 0 280 280" height="280" width="280"><g transform="matrix(1,0,0,1,57.50420886156945,57.50420886156945)"><svg viewBox="0 0 164.9915822768611 164.9915822768611" height="164.9915822768611" width="164.9915822768611"><g id="SvgjsG4664"><circle r="82" cx="82.49579113843055" cy="82.49579113843055" fill="black"></circle><svg xmlns="http://www.w3.org/2000/svg" xmlns:xlink="http://www.w3.org/1999/xlink" version="1.1" x="24.74873734152917" y="24.748737341529164" viewBox="18 13 28 39" enable-background="new 0 0 64 64" xml:space="preserve" height="115.49410759380275" width="115.49410759380275" class="icon-jxe-0" data-fill-palette-color="quaternary" id="SvgjsSvg4663"><path d="M32 52C31.722 52 31.457 51.884 31.267 51.681 30.726 51.097 18 37.274 18 27 18 19.28 24.28 13 32 13S46 19.28 46 27C46 37.274 33.274 51.097 32.733 51.681 32.543 51.884 32.278 52 32 52M32 15C25.383 15 20 20.383 20 27 20 35.146 29.29 46.391 32 49.497 34.71 46.391 44 35.146 44 27 44 20.383 38.617 15 32 15" fill="black"></path><path d="M32 36C27.038 36 23 31.962 23 27S27.038 18 32 18C36.963 18 41 22.038 41 27S36.963 36 32 36M32 20C28.14 20 25 23.14 25 27S28.14 34 32 34 39 30.86 39 27 35.859 20 32 20" fill="black"></path><path d="M34 26H33V25A1 1 0 0 0 31 25V26H30A1 1 0 0 0 30 28H31V29A1 1 0 0 0 33 29V28H34A1 1 0 1 0 34 26" fill="black"></path></svg></g></svg></g><g id="SvgjsG4662"><path d="M25.006 107.101v0c-0.208 0.508-0.496 0.798-0.866 0.87-0.374 0.062-0.732 0.023-1.076-0.117v0c-1.665-0.68-3.5-1.622-5.507-2.826-2.01-1.214-3.975-2.494-5.893-3.841v0c-1.618-1.157-3.098-2.317-4.44-3.48-1.338-1.154-2.42-2.134-3.248-2.939v0c-1.157-1.162-1.948-2.274-2.374-3.337-0.426-1.063-0.431-2.103-0.016-3.121v0c0.306-0.75 0.828-1.319 1.565-1.707 0.737-0.389 1.772-0.374 3.106 0.045v0c1.615 0.474 3.258 0.926 4.929 1.356 1.67 0.43 3.211 0.777 4.622 1.042 1.405 0.262 2.517 0.39 3.336 0.383v0c0.715 0.01 1.166-0.213 1.352-0.671v0c0.208-0.508 0.064-1.082-0.431-1.722v0c-0.442-0.588-1.093-1.291-1.952-2.109-0.851-0.822-1.766-1.659-2.745-2.51-0.979-0.852-1.879-1.616-2.7-2.293v0c-0.874-0.765-1.735-1.579-2.583-2.444-0.857-0.861-1.482-1.78-1.877-2.757-0.403-0.973-0.391-1.983 0.037-3.032v0c0.394-0.966 1.003-1.522 1.826-1.667 0.829-0.143 1.953 0.074 3.37 0.653v0c1.099 0.449 2.237 0.958 3.413 1.527v0c0.689 0.311 1.392 0.639 2.111 0.984 0.722 0.339 1.47 0.667 2.245 0.983v0c1.207 0.493 2.503 0.951 3.887 1.376 1.39 0.427 2.75 0.7 4.079 0.82 1.323 0.118 2.536-0.021 3.639-0.416v0c0.27-0.134 0.562-0.241 0.876-0.32 0.312-0.073 0.617-0.049 0.916 0.073v0c0.667 0.272 1.132 0.877 1.394 1.815 0.259 0.928 0.201 1.85-0.173 2.765v0c-0.337 0.826-0.856 1.333-1.555 1.522-0.704 0.18-1.559 0.205-2.566 0.075v0c-1.234-0.192-2.517-0.498-3.852-0.916-1.328-0.416-2.595-0.87-3.802-1.363v0c-1.925-0.786-3.671-1.584-5.239-2.395-1.558-0.814-2.725-1.379-3.5-1.695v0c-0.426-0.174-0.757-0.261-0.994-0.262-0.237 0-0.42 0.158-0.55 0.476v0c-0.153 0.375-0.113 0.758 0.12 1.15 0.233 0.392 0.611 0.791 1.135 1.197v0c0.982 0.809 2.028 1.688 3.137 2.638 1.107 0.956 2.182 1.918 3.226 2.885 1.041 0.973 1.935 1.924 2.683 2.852v0c0.873 1.076 1.358 2.048 1.455 2.918 0.103 0.873 0.007 1.671-0.288 2.396v0c-0.459 1.125-1.163 1.831-2.111 2.118-0.945 0.281-1.901 0.38-2.868 0.297v0c-1.293-0.12-2.931-0.411-4.914-0.872-1.981-0.468-4.165-1.111-6.552-1.93v0c-1.015-0.347-1.641-0.229-1.88 0.356v0c-0.265 0.648 0.009 1.357 0.823 2.126v0c0.83 0.709 1.835 1.479 3.015 2.31 1.177 0.822 2.436 1.606 3.777 2.353 1.332 0.751 2.681 1.406 4.046 1.964v0c1.156 0.472 2.183 0.836 3.08 1.09 0.897 0.255 1.72 0.535 2.47 0.842v0c0.534 0.218 0.89 0.608 1.068 1.17 0.181 0.556 0.237 1.146 0.167 1.769-0.072 0.63-0.19 1.146-0.353 1.546z" fill="white"></path><path d="M48.923 62.279v0c-1.15 1.301-2.481 1.988-3.994 2.062-1.513 0.074-3.03-0.562-4.552-1.908v0c-1.08-0.955-1.968-2.12-2.665-3.497-0.702-1.372-1.133-2.843-1.293-4.414-0.155-1.566 0.006-3.141 0.482-4.726 0.471-1.59 1.329-3.089 2.575-4.498v0c1.15-1.301 2.358-2.216 3.624-2.747 1.256-0.529 2.264-0.458 3.026 0.215v0c0.195 0.173 0.429 0.421 0.702 0.745 0.277 0.318 0.484 0.597 0.62 0.837v0c0.12 0.216 0.198 0.445 0.232 0.686 0.035 0.251-0.034 0.474-0.207 0.669v0c-0.073 0.082-0.249 0.215-0.53 0.397v0c0.375 0.487 0.763 0.945 1.164 1.373 0.391 0.428 0.802 0.833 1.234 1.215v0c0.828 0.732 1.672 1.254 2.533 1.565 0.856 0.317 1.688 0.173 2.497-0.431v0c0.214-0.159 0.417-0.259 0.609-0.3 0.192-0.041 0.429 0.064 0.712 0.314v0c0.237 0.209 0.488 0.536 0.753 0.982 0.266 0.446 0.395 0.968 0.388 1.566-0.002 0.593-0.281 1.204-0.835 1.831v0c-0.75 0.848-1.636 1.224-2.659 1.126-1.022-0.088-2.106-0.639-3.252-1.652v0c0.541 1.523 0.751 3.032 0.628 4.527-0.122 1.495-0.719 2.85-1.792 4.063zM46.458 58.244v0c0.768-0.869 1.173-1.871 1.215-3.006 0.041-1.145-0.186-2.267-0.681-3.364v0c-0.31-0.696-0.717-1.381-1.22-2.055-0.499-0.679-1.033-1.308-1.604-1.885v0c-0.502 0.216-1.016 0.512-1.543 0.89-0.531 0.383-1.026 0.834-1.485 1.353v0c-1.173 1.327-1.748 2.76-1.726 4.3 0.022 1.55 0.62 2.843 1.792 3.879v0c0.869 0.768 1.78 1.147 2.732 1.137 0.952-0.01 1.792-0.426 2.52-1.249z" fill="white"></path><path d="M71.386 41.349v0c-0.382 0.256-0.731 0.394-1.047 0.416-0.316 0.022-0.545-0.147-0.687-0.507v0c-0.423-1.212-0.905-2.413-1.445-3.604-0.531-1.189-1.127-2.276-1.788-3.263v0c-0.855-1.278-1.556-2.159-2.103-2.643-0.553-0.481-1.039-0.75-1.458-0.808-0.421-0.049-0.862-0.005-1.325 0.13v0c-0.217 0.046-0.431 0.053-0.642 0.022-0.211-0.032-0.39-0.156-0.535-0.373v0c-0.225-0.337-0.344-0.798-0.356-1.385-0.007-0.59 0.128-1.197 0.405-1.819 0.281-0.617 0.735-1.136 1.362-1.556v0c0.816-0.546 1.575-0.645 2.278-0.298 0.703 0.347 1.36 0.977 1.971 1.889v0c-0.212-1.254-0.187-2.377 0.073-3.369 0.261-0.992 0.87-1.809 1.829-2.451v0c0.65-0.435 1.289-0.652 1.918-0.651 0.628 0.001 1.158 0.323 1.589 0.968v0c0.435 0.65 0.631 1.399 0.586 2.246-0.044 0.847-0.28 1.414-0.707 1.7v0c-0.074 0.05-0.167 0.095-0.28 0.138-0.112 0.042-0.235 0.038-0.368-0.014v0c-0.569-0.172-1.082-0.106-1.539 0.2v0c-0.702 0.47-1.009 1.336-0.923 2.6 0.08 1.268 0.635 2.726 1.664 4.374v0c0.429 0.58 0.86 1.18 1.291 1.799 0.428 0.614 0.739 1.067 0.933 1.358v0c0.596 0.89 0.838 1.789 0.727 2.697-0.105 0.904-0.58 1.639-1.423 2.204z" fill="white"></path><path d="M93.454 29.099v0c-0.296 0.109-0.612 0.127-0.946 0.052-0.335-0.074-0.532-0.272-0.592-0.593v0c-0.395-2.32-0.861-4.653-1.398-7.001-0.543-2.345-1.236-4.658-2.076-6.938v0c-0.741-2.009-1.48-3.803-2.216-5.382-0.736-1.579-1.747-2.98-3.032-4.203v0c-0.247-0.253-0.451-0.47-0.614-0.652-0.158-0.19-0.273-0.382-0.344-0.575v0c-0.19-0.515-0.079-1.127 0.333-1.835 0.421-0.704 0.972-1.182 1.655-1.433v0c0.972-0.359 1.855-0.008 2.649 1.052 0.796 1.067 1.624 2.766 2.483 5.097v0c1.033 2.801 1.768 5.299 2.205 7.494 0.445 2.199 0.745 3.884 0.9 5.056v0l0.196 0.026c0.049-1.532 0.267-3.072 0.655-4.62 0.383-1.539 0.975-2.92 1.774-4.144 0.802-1.218 1.853-2.066 3.154-2.546v0c1.281-0.473 2.407-0.456 3.376 0.049 0.976 0.503 1.658 1.283 2.048 2.339v0c0.461 1.249 0.424 2.528-0.11 3.838-0.54 1.311-1.409 2.557-2.604 3.737v0c0.694 0.79 1.465 1.332 2.312 1.627 0.845 0.288 1.77 0.247 2.774-0.124v0c0.328-0.121 0.591-0.251 0.789-0.39v0c0.319-0.206 0.619 0.072 0.9 0.832v0c0.159 0.431 0.259 0.95 0.3 1.557 0.039 0.6-0.108 1.185-0.44 1.753-0.332 0.569-0.971 1.027-1.917 1.377v0c-1.281 0.473-2.459 0.483-3.533 0.03-1.074-0.452-2.04-1.146-2.897-2.081-0.855-0.928-1.605-1.892-2.251-2.889v0c-0.583-0.926-0.437-1.58 0.44-1.962v0c0.906-0.459 1.602-1.041 2.088-1.747 0.479-0.704 0.579-1.435 0.298-2.195v0c-0.321-0.869-0.903-1.148-1.746-0.837v0c-0.541 0.2-1.019 0.599-1.435 1.199-0.406 0.604-0.748 1.264-1.025 1.98-0.277 0.717-0.469 1.387-0.574 2.012v0c-0.144 0.858-0.243 1.681-0.297 2.468-0.044 0.792-0.038 1.561 0.018 2.309v0l0.602 1.632c0.371 1.005 0.386 1.939 0.047 2.803-0.346 0.867-0.996 1.476-1.949 1.828z" fill="white"></path><path d="M130.279 20.097v0c-2.187 0.197-3.95-0.278-5.286-1.425-1.343-1.14-2.116-2.834-2.319-5.084v0c-0.184-2.044 0.096-3.944 0.84-5.699 0.744-1.755 1.827-3.197 3.248-4.324 1.428-1.128 3.048-1.774 4.86-1.937v0c1.729-0.156 3.152 0.143 4.267 0.897 1.115 0.754 1.737 1.838 1.865 3.253v0c0.101 1.121-0.15 2.191-0.755 3.211-0.612 1.013-1.466 1.852-2.564 2.515-1.105 0.665-2.364 1.061-3.779 1.189v0c-1.729 0.156-3.176-0.106-4.34-0.787v0c0.147 1.324 0.698 2.349 1.652 3.076 0.955 0.727 2.122 1.028 3.503 0.904v0c0.834-0.075 1.678-0.303 2.533-0.684 0.855-0.38 1.573-0.859 2.155-1.434v0c0.372-0.385 0.732-0.593 1.08-0.625v0c0.287-0.026 0.535 0.048 0.744 0.222 0.201 0.168 0.315 0.395 0.341 0.683v0c0.057 0.636-0.414 1.522-1.414 2.66v0c-1.768 2.02-3.978 3.15-6.631 3.389zM130.019 9.876v0c1.032-0.093 1.877-0.386 2.536-0.879 0.651-0.5 0.947-1.081 0.887-1.745v0c-0.049-0.547-0.32-0.95-0.812-1.208-0.485-0.259-1.131-0.353-1.938-0.28v0c-1.066 0.096-1.971 0.46-2.713 1.092-0.742 0.632-1.242 1.47-1.499 2.513v0c0.427 0.223 0.964 0.378 1.613 0.464 0.649 0.086 1.291 0.101 1.926 0.043z" fill="white"></path><path d="M160.405 21.244v0c-1.743-0.27-2.905-1.044-3.485-2.321-0.58-1.277-0.728-2.832-0.444-4.663v0c0.102-0.658 0.238-1.293 0.409-1.906 0.166-0.62 0.341-1.239 0.528-1.856v0c0.186-0.617 0.366-1.218 0.539-1.802 0.182-0.59 0.342-1.152 0.48-1.686v0c-0.623 0.077-1.237 0.069-1.84-0.025v0c-0.631-0.098-0.906-0.404-0.826-0.919v0c0.084-0.543 0.431-1.169 1.041-1.881 0.61-0.711 1.338-1.394 2.182-2.048 0.852-0.66 1.682-1.198 2.49-1.614 0.814-0.416 1.479-0.583 1.995-0.504v0c0.631 0.098 0.862 0.689 0.694 1.775v0c-0.044 0.285-0.113 0.573-0.207 0.864-0.088 0.299-0.183 0.6-0.286 0.903v0c0.56-0.031 1.125-0.044 1.694-0.039 0.57-0.002 1.112 0.037 1.628 0.116v0c0.658 0.102 1.149 0.296 1.472 0.583 0.318 0.278 0.426 0.747 0.325 1.404v0c-0.107 0.692-0.377 1.355-0.809 1.99-0.438 0.634-0.858 0.919-1.258 0.857v0c-0.081-0.013-0.222-0.048-0.421-0.107-0.192-0.058-0.426-0.139-0.701-0.244v0c-0.359-0.146-0.821-0.304-1.385-0.475-0.556-0.176-1.234-0.327-2.035-0.45v0c-0.341 0.857-0.662 1.738-0.961 2.643-0.3 0.905-0.508 1.731-0.624 2.476v0c-0.256 1.655-0.018 2.848 0.717 3.58 0.742 0.726 1.899 1.211 3.473 1.455v0c0.482 0.075 0.812 0.206 0.991 0.393 0.171 0.193 0.226 0.49 0.164 0.89v0c-0.146 0.943-0.755 1.668-1.827 2.176-1.072 0.508-2.31 0.653-3.713 0.435z" fill="white"></path><path d="M203.333 37.423v0c-0.924-0.655-1.151-1.313-0.683-1.973v0c0.131-0.185 0.342-0.405 0.634-0.662v0c2.257-2.127 4.396-4.388 6.415-6.784v0c-0.422-0.165-0.739-0.322-0.952-0.473v0c-0.235-0.167-0.204-0.46 0.094-0.88v0c0.405-0.571 1-1.108 1.786-1.611 0.784-0.512 1.484-0.799 2.099-0.859v0c0.885-1.248 1.595-2.314 2.129-3.198 0.54-0.879 0.95-1.695 1.23-2.447 0.29-0.753 0.47-1.552 0.538-2.395v0c0.022-0.481 0.09-0.803 0.205-0.965v0c0.218-0.308 0.592-0.497 1.122-0.568 0.524-0.074 1.092-0.05 1.703 0.072 0.61 0.113 1.116 0.312 1.52 0.598v0c0.756 0.536 1.019 1.227 0.788 2.074-0.23 0.846-0.73 1.813-1.5 2.899v0c-0.392 0.505-0.967 1.216-1.727 2.132-0.75 0.915-1.7 2.029-2.851 3.343v0c1.553 0.967 3.055 1.927 4.507 2.881 1.448 0.96 2.822 1.9 4.121 2.822v0l2.62 1.858 0.702-0.991c1.457-2.055 2.468-4.055 3.033-6.002v0c0.114-0.517 0.231-0.859 0.35-1.027v0c0.334-0.47 0.946-0.693 1.836-0.667 0.887 0.031 1.66 0.281 2.321 0.75v0c0.728 0.516 1.031 1.127 0.909 1.832-0.131 0.707-0.54 1.544-1.226 2.512v0c-0.453 0.638-1.123 1.459-2.011 2.461-0.888 1.003-1.99 2.207-3.307 3.613v0c-1.388 1.506-2.52 2.752-3.396 3.738-0.88 0.991-1.614 1.901-2.201 2.73v0c-1.104 1.556-1.523 2.996-1.259 4.319v0c0.058 0.571-0.04 1.036-0.295 1.394v0c-0.385 0.543-1.042 0.793-1.969 0.749-0.932-0.038-1.846-0.375-2.742-1.011v0c-0.565-0.401-0.904-0.873-1.016-1.414-0.116-0.537 0.188-1.314 0.91-2.333v0c0.25-0.353 0.661-0.861 1.233-1.524 0.573-0.654 1.326-1.466 2.258-2.437v0c0.58-0.615 1.138-1.213 1.675-1.792 0.537-0.579 1.028-1.135 1.473-1.668v0c-0.313 0.098-0.59 0.15-0.83 0.156-0.235 0.01-0.473-0.087-0.714-0.292v0c-0.815-0.654-1.631-1.295-2.447-1.925-0.816-0.629-1.635-1.236-2.458-1.819v0c-1.724-1.223-3.44-2.28-5.147-3.171v0c-0.143 0.142-0.359 0.406-0.649 0.789-0.285 0.378-0.521 0.699-0.707 0.963v0c-0.719 1.013-1.416 2.097-2.091 3.25-0.675 1.154-1.267 2.19-1.775 3.108v0c-0.35 0.635-0.962 0.9-1.837 0.792-0.88-0.111-1.687-0.427-2.421-0.947z" fill="white"></path><path d="M234.355 65.213v0c-0.865-1.153-1.201-2.299-1.009-3.438 0.198-1.143 0.934-2.193 2.208-3.148v0c0.901-0.675 1.921-1.243 3.06-1.702v0c0.482-0.181 0.944-0.382 1.388-0.603 0.445-0.231 0.865-0.494 1.26-0.791v0c1.016-0.762 1.44-1.569 1.273-2.421v0c-0.125-0.841 0-1.402 0.373-1.682v0c0.368-0.276 0.856-0.397 1.464-0.364 0.603 0.037 1.198 0.196 1.785 0.476 0.593 0.276 1.064 0.647 1.415 1.114v0c0.988 1.318 0.403 2.786-1.755 4.404v0c-0.692 0.519-1.374 0.948-2.045 1.288-0.666 0.336-1.317 0.635-1.952 0.898v0c-0.443 0.187-0.872 0.388-1.285 0.603-0.415 0.225-0.759 0.44-1.034 0.646v0c-1.159 0.869-1.312 1.871-0.46 3.008v0c0.795 1.06 2.108 1.628 3.941 1.704 1.827 0.08 3.984-0.344 6.469-1.274v0l0.635-0.527c1.126-0.913 2.159-1.37 3.101-1.372 0.942-0.003 1.744 0.438 2.407 1.322v0c0.572 0.763 0.614 1.328 0.125 1.695v0c-0.159 0.119-0.391 0.246-0.694 0.378-0.294 0.134-0.657 0.274-1.089 0.418v0c-1.039 0.41-2.099 0.896-3.18 1.457-1.085 0.556-2.03 1.136-2.837 1.742v0c-0.906 0.679-1.548 1.379-1.926 2.099-0.383 0.725-0.393 1.547-0.029 2.467v0c0.134 0.225 0.197 0.44 0.187 0.645-0.01 0.205-0.176 0.428-0.501 0.671v0c-0.555 0.416-1.271 0.593-2.149 0.531-0.883-0.067-1.653-0.54-2.312-1.42v0c-1.268-1.691-0.71-3.43 1.673-5.217v0c0.417-0.313 1.07-0.747 1.958-1.301v0l-0.023-0.098c-4.842 1.357-8.323 0.621-10.442-2.208z" fill="white"></path><path d="M252.638 97.509v0c-0.386-0.999-0.541-1.925-0.466-2.778 0.078-0.847 0.28-1.646 0.608-2.398v0c-0.565-0.091-1.097-0.25-1.597-0.476-0.506-0.224-0.848-0.566-1.026-1.027v0c-0.114-0.295-0.136-0.61-0.067-0.946 0.069-0.336 0.264-0.536 0.585-0.601v0c2.313-0.43 4.633-0.929 6.96-1.496 2.324-0.574 4.632-1.303 6.924-2.188v0c1.921-0.742 3.691-1.503 5.31-2.283 1.619-0.78 2.997-1.794 4.133-3.042v0c0.217-0.238 0.429-0.452 0.635-0.642 0.209-0.184 0.422-0.317 0.639-0.402v0c0.512-0.198 1.125-0.096 1.84 0.305 0.71 0.41 1.196 0.954 1.458 1.633v0c0.373 0.967 0.036 1.855-1.012 2.664-1.055 0.812-2.741 1.666-5.059 2.561v0c-1.972 0.762-3.808 1.371-5.507 1.829-1.702 0.451-3.177 0.793-4.427 1.026v0c1.888 0.146 3.632 0.661 5.232 1.544 1.602 0.89 2.72 2.157 3.355 3.802v0c0.635 1.645 0.585 3.144-0.151 4.495-0.734 1.358-2.032 2.396-3.895 3.116v0c-1.377 0.532-2.801 0.835-4.273 0.911-1.481 0.072-2.897-0.08-4.248-0.456-1.361-0.38-2.562-0.994-3.603-1.842-1.044-0.855-1.827-1.958-2.348-3.309zM257.377 96.749v0c0.593 1.537 1.536 2.538 2.826 3.003 1.297 0.463 2.579 0.449 3.847-0.04v0c1.108-0.428 1.848-1.063 2.221-1.907 0.373-0.843 0.367-1.764-0.018-2.762v0c-0.386-0.999-1.034-1.771-1.944-2.318-0.912-0.553-1.965-0.907-3.159-1.064-1.194-0.157-2.415-0.167-3.664-0.031v0c-0.349 0.849-0.531 1.721-0.546 2.617-0.011 0.887 0.135 1.721 0.437 2.502z" fill="white"></path><path d="M7.355 140.353c0-1.868 1.514-3.383 3.382-3.383 1.868 0 3.383 1.514 3.383 3.383 0 1.868-1.514 3.383-3.383 3.382-1.868 0-3.383-1.514-3.382-3.382z" fill="white"></path><path d="M266.795 140.353c0-1.868 1.514-3.383 3.382-3.383 1.868 0 3.383 1.514 3.383 3.383 0 1.868-1.514 3.383-3.383 3.382-1.868 0-3.383-1.514-3.382-3.382z" fill="white"></path></g><g id="SvgjsG4661"><path d="M7.324 180.934v0c-0.214-0.52-0.212-0.937 0.009-1.251 0.226-0.316 0.517-0.547 0.872-0.693v0c1.701-0.701 3.716-1.33 6.047-1.89 2.331-0.559 4.683-1.038 7.057-1.437v0c2.014-0.318 3.925-0.537 5.731-0.657 1.812-0.123 3.311-0.187 4.496-0.193v0c1.67 0.017 3.043 0.261 4.12 0.73 1.077 0.469 1.829 1.225 2.258 2.266v0c0.316 0.768 0.345 1.558 0.086 2.369-0.259 0.812-1.027 1.544-2.302 2.196v0c-1.519 0.819-3.041 1.672-4.568 2.561-1.523 0.88-2.895 1.731-4.115 2.552-1.211 0.826-2.114 1.535-2.709 2.129v0c-0.526 0.506-0.694 0.991-0.503 1.454v0c0.214 0.52 0.731 0.838 1.551 0.954v0c0.749 0.107 1.729 0.152 2.94 0.136 1.208-0.023 2.475-0.073 3.801-0.152 1.332-0.081 2.539-0.17 3.62-0.266v0c1.187-0.073 2.402-0.099 3.643-0.076 1.245 0.014 2.364 0.233 3.355 0.656 0.991 0.423 1.707 1.171 2.148 2.243v0c0.405 0.984 0.359 1.827-0.138 2.529-0.498 0.702-1.473 1.353-2.926 1.952v0c-1.123 0.463-2.317 0.906-3.583 1.331v0c-0.721 0.267-1.469 0.534-2.242 0.801-0.771 0.273-1.553 0.573-2.346 0.899v0c-1.231 0.507-2.507 1.103-3.828 1.789-1.318 0.692-2.505 1.47-3.559 2.334-1.054 0.865-1.838 1.837-2.351 2.917v0c-0.108 0.297-0.249 0.585-0.423 0.865-0.168 0.277-0.404 0.478-0.709 0.603v0c-0.685 0.282-1.456 0.177-2.312-0.316-0.863-0.491-1.486-1.203-1.871-2.136v0c-0.35-0.85-0.338-1.594 0.038-2.231 0.382-0.64 0.99-1.273 1.824-1.898v0c1.034-0.752 2.185-1.453 3.454-2.102 1.276-0.652 2.529-1.231 3.76-1.738v0c1.974-0.813 3.82-1.484 5.539-2.015 1.716-0.536 2.971-0.968 3.765-1.294v0c0.438-0.18 0.745-0.355 0.92-0.524 0.169-0.166 0.187-0.411 0.053-0.735v0c-0.159-0.387-0.464-0.64-0.914-0.759-0.45-0.119-1.01-0.137-1.681-0.054v0c-1.295 0.118-2.69 0.228-4.183 0.332-1.5 0.106-2.978 0.176-4.434 0.212-1.459 0.044-2.794-0.007-4.005-0.154v0c-1.414-0.152-2.466-0.509-3.157-1.071-0.7-0.565-1.202-1.216-1.506-1.952v0c-0.476-1.155-0.469-2.175 0.02-3.059 0.48-0.888 1.102-1.649 1.866-2.283v0c1.031-0.848 2.438-1.813 4.218-2.896 1.778-1.089 3.833-2.191 6.165-3.307v0c0.985-0.473 1.354-1.011 1.106-1.613v0c-0.269-0.654-0.975-0.971-2.119-0.954v0c-1.12 0.075-2.407 0.238-3.863 0.489-1.452 0.242-2.935 0.57-4.448 0.986-1.514 0.416-2.969 0.911-4.365 1.486v0c-1.18 0.486-2.189 0.957-3.025 1.414-0.837 0.456-1.639 0.842-2.407 1.158v0c-0.546 0.225-1.083 0.201-1.61-0.072-0.531-0.279-0.997-0.673-1.4-1.182-0.403-0.51-0.689-0.971-0.86-1.383z" fill="white"></path><path d="M34.722 231.67v0c-1.183-1.327-1.718-2.762-1.606-4.307 0.108-1.549 0.936-3.014 2.483-4.393v0c1.107-0.987 2.4-1.754 3.88-2.3 1.479-0.537 3.025-0.794 4.638-0.77 1.617 0.029 3.203 0.385 4.758 1.067 1.556 0.672 2.976 1.728 4.26 3.168v0c1.183 1.327 1.965 2.662 2.344 4.006 0.39 1.345 0.198 2.362-0.576 3.052v0c-0.2 0.178-0.482 0.388-0.845 0.629-0.354 0.242-0.661 0.419-0.92 0.531v0c-0.239 0.093-0.485 0.142-0.738 0.147-0.253 0.005-0.469-0.092-0.647-0.292v0c-0.078-0.087-0.191-0.281-0.338-0.581v0c-0.548 0.323-1.061 0.661-1.538 1.013-0.482 0.347-0.945 0.719-1.391 1.116v0c-0.84 0.749-1.471 1.542-1.894 2.378-0.427 0.831-0.384 1.694 0.129 2.589v0c0.137 0.236 0.214 0.457 0.232 0.662 0.023 0.201-0.11 0.429-0.397 0.685v0c-0.241 0.215-0.606 0.43-1.094 0.644-0.484 0.21-1.03 0.279-1.638 0.205-0.603-0.078-1.19-0.438-1.761-1.078v0c-0.767-0.861-1.044-1.805-0.829-2.832 0.214-1.028 0.908-2.065 2.081-3.111v0c-1.611 0.37-3.17 0.399-4.679 0.089-1.504-0.305-2.809-1.077-3.914-2.317zM39.124 229.662v0c0.786 0.881 1.757 1.413 2.913 1.596 1.156 0.183 2.321 0.087 3.495-0.289v0c0.752-0.229 1.502-0.558 2.251-0.986 0.744-0.434 1.447-0.904 2.108-1.411v0c-0.159-0.529-0.4-1.087-0.721-1.674-0.326-0.583-0.727-1.14-1.202-1.673v0c-1.201-1.347-2.589-2.105-4.164-2.273-1.576-0.158-2.96 0.295-4.154 1.359v0c-0.886 0.79-1.381 1.668-1.486 2.634-0.109 0.971 0.211 1.876 0.96 2.717z" fill="white"></path><path d="M61.023 255.564v0c-0.394-0.262-0.665-0.537-0.812-0.824-0.143-0.293-0.071-0.575 0.215-0.845v0c0.975-0.885 1.922-1.813 2.84-2.786 0.912-0.976 1.704-1.97 2.377-2.982v0c0.87-1.309 1.426-2.32 1.668-3.032 0.243-0.712 0.307-1.275 0.195-1.688-0.119-0.417-0.335-0.816-0.65-1.198v0c-0.122-0.188-0.21-0.391-0.264-0.608-0.057-0.211-0.012-0.428 0.136-0.651v0c0.232-0.349 0.623-0.641 1.175-0.875 0.546-0.239 1.17-0.347 1.873-0.326 0.697 0.018 1.365 0.24 2.005 0.665v0c0.84 0.558 1.234 1.236 1.182 2.034-0.05 0.807-0.387 1.68-1.009 2.617v0c1.097-0.696 2.168-1.118 3.213-1.264 1.035-0.144 2.047 0.112 3.036 0.769v0c0.669 0.444 1.125 0.961 1.368 1.551 0.248 0.594 0.152 1.222-0.289 1.885v0c-0.444 0.669-1.076 1.148-1.893 1.437-0.816 0.298-1.447 0.299-1.893 0.002v0c-0.074-0.049-0.151-0.121-0.229-0.213-0.082-0.087-0.128-0.204-0.138-0.351v0c-0.058-0.607-0.324-1.068-0.799-1.384v0c-0.715-0.475-1.655-0.424-2.82 0.153-1.166 0.577-2.321 1.676-3.465 3.297v0c-0.387 0.633-0.788 1.273-1.202 1.921-0.418 0.654-0.724 1.126-0.917 1.418v0c-0.608 0.915-1.361 1.502-2.258 1.762-0.9 0.251-1.782 0.089-2.645-0.484z" fill="white"></path><path d="M86.935 269.699v0c-0.303-0.111-0.563-0.309-0.78-0.594-0.211-0.282-0.232-0.564-0.063-0.845v0c1.236-2.076 2.42-4.208 3.551-6.396 1.131-2.188 2.125-4.451 2.982-6.79v0c0.754-2.056 1.369-3.943 1.845-5.662 0.47-1.721 0.612-3.485 0.427-5.293v0c-0.031-0.355-0.047-0.66-0.047-0.916-0.003-0.25 0.031-0.475 0.104-0.675v0c0.194-0.528 0.688-0.929 1.482-1.2 0.796-0.278 1.543-0.29 2.238-0.035v0c0.999 0.366 1.458 1.229 1.376 2.588-0.088 1.357-0.57 3.23-1.446 5.621v0c-1.051 2.868-2.134 5.303-3.249 7.307-1.117 2.01-2.004 3.523-2.662 4.54v0l0.143 0.15c1.055-1.163 2.246-2.218 3.572-3.164 1.329-0.953 2.706-1.64 4.132-2.06 1.435-0.424 2.822-0.391 4.163 0.101v0c1.308 0.48 2.174 1.239 2.597 2.278 0.423 1.04 0.435 2.104 0.035 3.193v0c-0.468 1.276-1.347 2.248-2.636 2.916-1.281 0.663-2.782 1.06-4.504 1.188v0c0.016 1.073 0.259 2.006 0.728 2.8 0.465 0.785 1.214 1.366 2.245 1.744v0c0.335 0.123 0.623 0.195 0.863 0.218v0c0.398 0.051 0.454 0.466 0.168 1.246v0c-0.163 0.445-0.431 0.917-0.804 1.416-0.371 0.493-0.875 0.852-1.514 1.078-0.63 0.222-1.434 0.154-2.414-0.205v0c-1.302-0.477-2.224-1.25-2.768-2.319-0.54-1.06-0.832-2.238-0.876-3.534-0.051-1.298 0.003-2.55 0.16-3.757v0c0.159-1.111 0.705-1.525 1.64-1.241v0c1.02 0.249 1.949 0.257 2.787 0.024 0.843-0.225 1.407-0.727 1.693-1.507v0c0.326-0.889 0.057-1.492-0.807-1.809v0c-0.554-0.203-1.191-0.21-1.911-0.021-0.716 0.198-1.42 0.484-2.113 0.86-0.695 0.381-1.291 0.78-1.788 1.197v0c-0.683 0.568-1.304 1.145-1.862 1.73-0.564 0.583-1.071 1.186-1.519 1.812v0l-0.61 1.662c-0.378 1.031-0.989 1.772-1.834 2.222-0.843 0.444-1.75 0.488-2.724 0.132z" fill="white"></path><path d="M128.74 279.955v0c-2.242-0.199-3.935-0.997-5.079-2.394-1.137-1.396-1.603-3.243-1.399-5.54v0c0.186-2.099 0.814-3.962 1.881-5.59 1.069-1.635 2.421-2.893 4.057-3.774 1.642-0.881 3.393-1.238 5.252-1.073v0c1.771 0.157 3.147 0.721 4.129 1.69 0.989 0.963 1.42 2.169 1.291 3.618v0c-0.102 1.149-0.552 2.18-1.35 3.095-0.79 0.908-1.802 1.597-3.036 2.066-1.234 0.469-2.572 0.64-4.014 0.511v0c-1.771-0.157-3.185-0.683-4.243-1.576v0c-0.086 1.357 0.282 2.488 1.104 3.395 0.829 0.907 1.951 1.424 3.366 1.55v0c0.861 0.077 1.754 0.001 2.677-0.227 0.93-0.227 1.743-0.579 2.44-1.055v0c0.442-0.319 0.84-0.463 1.196-0.431v0c0.294 0.026 0.532 0.144 0.712 0.353 0.174 0.208 0.249 0.46 0.223 0.754v0c-0.058 0.649-0.698 1.457-1.921 2.423v0c-2.143 1.711-4.572 2.446-7.286 2.205zM130.331 269.606v0c1.06 0.094 1.964-0.046 2.715-0.42 0.744-0.382 1.146-0.911 1.205-1.588v0c0.05-0.561-0.147-1.019-0.591-1.376-0.444-0.35-1.08-0.561-1.907-0.634v0c-1.087-0.097-2.063 0.106-2.927 0.608-0.865 0.502-1.52 1.253-1.968 2.254v0c0.393 0.304 0.908 0.56 1.544 0.768 0.637 0.201 1.28 0.331 1.929 0.388z" fill="white"></path><path d="M163.434 278.634v0c-1.784 0.277-3.154-0.118-4.112-1.185-0.964-1.066-1.591-2.535-1.881-4.407v0c-0.104-0.671-0.169-1.335-0.195-1.991-0.025-0.656-0.044-1.313-0.055-1.971v0c-0.012-0.658-0.021-1.302-0.029-1.933-0.008-0.631-0.027-1.229-0.06-1.793v0c-0.583 0.271-1.183 0.454-1.8 0.55v0c-0.644 0.1-1.007-0.111-1.088-0.633v0c-0.086-0.556 0.056-1.276 0.426-2.16 0.377-0.885 0.877-1.782 1.499-2.692 0.624-0.902 1.267-1.683 1.929-2.341 0.662-0.658 1.257-1.028 1.786-1.11v0c0.644-0.1 1.053 0.406 1.226 1.518v0c0.045 0.292 0.068 0.597 0.069 0.917 0.007 0.312 0.005 0.635-0.006 0.97v0c0.537-0.208 1.087-0.401 1.65-0.579 0.556-0.177 1.095-0.305 1.617-0.387v0c0.678-0.105 1.219-0.068 1.622 0.113 0.402 0.174 0.656 0.6 0.761 1.278v0c0.108 0.699 0.048 1.427-0.182 2.185-0.23 0.758-0.548 1.168-0.955 1.232v0c-0.088 0.014-0.237 0.019-0.445 0.017-0.208 0.004-0.465-0.001-0.774-0.016v0c-0.393-0.029-0.889-0.043-1.485-0.04-0.596 0.009-1.304 0.077-2.125 0.205v0c-0.07 0.935-0.109 1.892-0.117 2.872-0.015 0.975 0.036 1.842 0.153 2.602v0c0.264 1.702 0.867 2.793 1.81 3.272 0.944 0.486 2.222 0.603 3.837 0.353v0c0.495-0.077 0.857-0.05 1.085 0.081 0.235 0.13 0.385 0.399 0.448 0.806v0c0.15 0.97-0.221 1.868-1.113 2.694-0.893 0.826-2.058 1.351-3.496 1.574z" fill="white"></path><path d="M213.972 259.258v0c-0.942 0.665-1.651 0.66-2.126-0.013v0c-0.138-0.196-0.282-0.477-0.43-0.843v0c-1.287-2.897-2.745-5.732-4.374-8.505v0c-0.288 0.354-0.541 0.608-0.759 0.762v0c-0.241 0.17-0.516 0.036-0.825-0.401v0c-0.411-0.583-0.729-1.338-0.953-2.263-0.223-0.935-0.259-1.707-0.109-2.316v0c-0.906-1.284-1.692-2.334-2.36-3.149-0.665-0.824-1.314-1.5-1.946-2.028-0.631-0.538-1.342-0.981-2.135-1.33v0c-0.45-0.186-0.737-0.366-0.859-0.54v0c-0.222-0.314-0.276-0.737-0.165-1.269 0.112-0.532 0.328-1.071 0.649-1.617 0.322-0.555 0.688-0.977 1.098-1.266v0c0.774-0.546 1.531-0.563 2.269-0.05 0.745 0.508 1.508 1.317 2.292 2.427v0c0.348 0.553 0.838 1.349 1.471 2.39 0.627 1.044 1.382 2.347 2.264 3.908v0c1.454-1.177 2.892-2.3 4.314-3.37 1.417-1.075 2.79-2.081 4.119-3.018v0l2.692-1.899-0.717-1.018c-1.487-2.109-3.075-3.765-4.764-4.968v0c-0.457-0.291-0.745-0.52-0.863-0.688v0c-0.344-0.488-0.352-1.154-0.024-1.999 0.328-0.845 0.832-1.506 1.51-1.985v0c0.752-0.53 1.448-0.614 2.09-0.252 0.636 0.366 1.304 1.045 2.005 2.038v0c0.463 0.656 1.024 1.583 1.684 2.781 0.669 1.199 1.458 2.675 2.366 4.428v0c0.976 1.848 1.79 3.365 2.442 4.552 0.661 1.188 1.291 2.206 1.888 3.053v0c1.127 1.599 2.376 2.494 3.746 2.686v0c0.571 0.143 0.985 0.397 1.243 0.762v0c0.392 0.555 0.41 1.277 0.054 2.166-0.354 0.88-0.991 1.644-1.911 2.293v0c-0.583 0.411-1.157 0.581-1.72 0.507-0.558-0.077-1.205-0.637-1.941-1.68v0c-0.257-0.365-0.604-0.934-1.042-1.709-0.441-0.781-0.969-1.785-1.584-3.015v0c-0.399-0.768-0.785-1.512-1.158-2.232-0.379-0.716-0.749-1.378-1.112-1.987v0c-0.014 0.337-0.058 0.62-0.132 0.849-0.07 0.234-0.248 0.435-0.533 0.602v0c-0.905 0.563-1.8 1.127-2.686 1.693-0.887 0.575-1.755 1.162-2.601 1.759v0c-1.767 1.246-3.372 2.542-4.817 3.888v0c0.096 0.184 0.279 0.479 0.549 0.886 0.268 0.416 0.495 0.755 0.68 1.019v0c0.736 1.043 1.546 2.085 2.43 3.124 0.882 1.049 1.678 1.974 2.387 2.776v0c0.5 0.554 0.549 1.238 0.148 2.05-0.411 0.811-0.992 1.481-1.744 2.011z" fill="white"></path><path d="M249.64 227.432v0c-0.892 1.184-1.926 1.844-3.103 1.98-1.177 0.136-2.417-0.287-3.722-1.269v0c-0.921-0.694-1.768-1.538-2.54-2.532v0c-0.315-0.426-0.648-0.823-0.998-1.19-0.347-0.373-0.723-0.712-1.129-1.018v0c-1.042-0.785-1.955-0.975-2.741-0.57v0c-0.791 0.366-1.376 0.407-1.755 0.122v0c-0.384-0.289-0.645-0.735-0.783-1.338-0.139-0.603-0.152-1.236-0.04-1.898 0.108-0.657 0.34-1.222 0.696-1.693v0c1.016-1.349 2.623-1.195 4.821 0.461v0c0.713 0.537 1.331 1.084 1.856 1.643 0.52 0.564 1 1.119 1.44 1.664v0c0.304 0.384 0.624 0.745 0.961 1.085 0.333 0.345 0.642 0.625 0.927 0.84v0c1.184 0.892 2.212 0.76 3.083-0.397v0c0.822-1.091 1.011-2.546 0.569-4.366-0.452-1.818-1.486-3.822-3.102-6.01v0l-0.706-0.467c-1.217-0.848-1.959-1.734-2.226-2.657-0.267-0.923-0.062-1.834 0.615-2.733v0c0.591-0.784 1.132-0.99 1.626-0.618v0c0.17 0.128 0.361 0.319 0.573 0.573 0.218 0.259 0.457 0.58 0.717 0.965v0c0.7 0.896 1.478 1.796 2.335 2.7 0.857 0.904 1.703 1.669 2.536 2.297v0c0.921 0.694 1.79 1.125 2.608 1.295 0.814 0.175 1.623-0.049 2.427-0.673v0c0.183-0.197 0.379-0.32 0.588-0.369 0.199-0.048 0.466 0.055 0.8 0.306v0c0.565 0.425 0.944 1.08 1.137 1.965 0.188 0.88-0.059 1.773-0.741 2.677v0c-1.301 1.727-3.171 1.671-5.61-0.166v0c-0.428-0.322-1.039-0.839-1.836-1.55v0l-0.082 0.041c2.709 4.378 2.975 8.011 0.799 10.9z" fill="white"></path><path d="M270.615 190.511v0c-0.396 1.017-0.916 1.823-1.56 2.42-0.642 0.59-1.346 1.056-2.114 1.398v0c0.36 0.457 0.653 0.943 0.88 1.458 0.227 0.515 0.248 1.01 0.063 1.483v0c-0.117 0.301-0.32 0.557-0.608 0.768-0.286 0.205-0.568 0.221-0.847 0.046v0c-2.051-1.277-4.153-2.5-6.304-3.669-2.152-1.169-4.402-2.211-6.749-3.125v0c-1.957-0.762-3.819-1.409-5.585-1.942-1.769-0.527-3.509-0.711-5.221-0.552v0c-0.33 0.034-0.638 0.05-0.925 0.049-0.287-0.001-0.542-0.045-0.766-0.133v0c-0.524-0.204-0.915-0.706-1.17-1.505-0.262-0.802-0.259-1.548 0.009-2.239v0c0.386-0.991 1.257-1.433 2.615-1.324 1.355 0.115 3.218 0.634 5.591 1.558v0c2.015 0.784 3.825 1.592 5.431 2.423 1.6 0.829 2.951 1.587 4.053 2.274v0c-1.33-1.409-2.294-2.999-2.893-4.772-0.596-1.779-0.567-3.509 0.088-5.191v0c0.657-1.688 1.731-2.791 3.221-3.309 1.488-0.511 3.185-0.395 5.091 0.347v0c1.407 0.548 2.693 1.302 3.858 2.264 1.171 0.964 2.139 2.055 2.902 3.273 0.77 1.22 1.253 2.513 1.451 3.879 0.197 1.366 0.027 2.739-0.511 4.121zM266.518 187.811v0c0.613-1.573 0.587-2.983-0.078-4.228-0.66-1.237-1.639-2.108-2.937-2.613v0c-1.132-0.441-2.129-0.472-2.991-0.093-0.862 0.379-1.492 1.08-1.891 2.104v0c-0.396 1.017-0.44 2.049-0.134 3.096 0.309 1.041 0.862 2.033 1.659 2.977 0.788 0.947 1.705 1.798 2.752 2.551v0c0.854-0.397 1.591-0.927 2.21-1.592 0.626-0.662 1.096-1.396 1.41-2.202z" fill="white"></path></g></svg></g></svg></g></svg></g><g></g></svg></g><defs><mask></mask></defs></svg><rect width="280" height="280" fill="black" stroke="none" visibility="hidden"></rect></g></mask><linearGradient x1="0.054" x2="0.941" y1="0.5" y2="0.5" id="cf2a56e9-3a13-4851-a5bd-ea2860ee2e8d"><stop stop-color="#9c7945" offset="0"></stop><stop stop-color="#faf3aa" offset="0.498"></stop><stop stop-color="#9c7945" offset="1"></stop></linearGradient><rect width="280" height="280" fill="url(#cf2a56e9-3a13-4851-a5bd-ea2860ee2e8d)" mask="url(#183d403e-a42f-49d8-95bd-c21c9642f827)" data-fill-palette-color="primary"></rect><mask id="9cbeabe7-1a8e-4c54-b3fb-b365dcdcaca8"><g id="SvgjsG4696"><svg viewBox="0 0 280 280" height="280" width="280"><g><svg viewBox="0 0 280 280" height="280" width="280"><g><svg viewBox="0 0 280 280" height="280" width="280"><g id="SvgjsG4695"><svg viewBox="0 0 280 280" height="280" width="280" id="SvgjsSvg4694"><g><svg viewBox="0 0 280 280" height="280" width="280"><g transform="matrix(1,0,0,1,57.50420886156945,57.50420886156945)"><svg viewBox="0 0 164.9915822768611 164.9915822768611" height="164.9915822768611" width="164.9915822768611"><g id="SvgjsG4693"><circle r="82" cx="82.49579113843055" cy="82.49579113843055" fill="white"></circle><svg xmlns="http://www.w3.org/2000/svg" xmlns:xlink="http://www.w3.org/1999/xlink" version="1.1" x="24.74873734152917" y="24.748737341529164" viewBox="18 13 28 39" enable-background="new 0 0 64 64" xml:space="preserve" height="115.49410759380275" width="115.49410759380275" class="icon-jxe-0" data-fill-palette-color="quaternary" id="SvgjsSvg4692"><path d="M32 52C31.722 52 31.457 51.884 31.267 51.681 30.726 51.097 18 37.274 18 27 18 19.28 24.28 13 32 13S46 19.28 46 27C46 37.274 33.274 51.097 32.733 51.681 32.543 51.884 32.278 52 32 52M32 15C25.383 15 20 20.383 20 27 20 35.146 29.29 46.391 32 49.497 34.71 46.391 44 35.146 44 27 44 20.383 38.617 15 32 15" fill="black"></path><path d="M32 36C27.038 36 23 31.962 23 27S27.038 18 32 18C36.963 18 41 22.038 41 27S36.963 36 32 36M32 20C28.14 20 25 23.14 25 27S28.14 34 32 34 39 30.86 39 27 35.859 20 32 20" fill="black"></path><path d="M34 26H33V25A1 1 0 0 0 31 25V26H30A1 1 0 0 0 30 28H31V29A1 1 0 0 0 33 29V28H34A1 1 0 1 0 34 26" fill="black"></path></svg></g></svg></g><g id="SvgjsG4691"></g><g id="SvgjsG4690"></g></svg></g></svg></g></svg></g><g></g></svg></g><defs><mask></mask></defs><mask><g id="SvgjsG4689"><svg viewBox="0 0 280 280" height="280" width="280"><g><svg viewBox="0 0 280 280" height="280" width="280"><g><svg viewBox="0 0 280 280" height="280" width="280"><g id="SvgjsG4688"><svg viewBox="0 0 280 280" height="280" width="280" id="SvgjsSvg4687"><g><svg viewBox="0 0 280 280" height="280" width="280"><g transform="matrix(1,0,0,1,57.50420886156945,57.50420886156945)"><svg viewBox="0 0 164.9915822768611 164.9915822768611" height="164.9915822768611" width="164.9915822768611"><g id="SvgjsG4686"><circle r="82" cx="82.49579113843055" cy="82.49579113843055" fill="black"></circle><svg xmlns="http://www.w3.org/2000/svg" xmlns:xlink="http://www.w3.org/1999/xlink" version="1.1" x="24.74873734152917" y="24.748737341529164" viewBox="18 13 28 39" enable-background="new 0 0 64 64" xml:space="preserve" height="115.49410759380275" width="115.49410759380275" class="icon-jxe-0" data-fill-palette-color="quaternary" id="SvgjsSvg4685"><path d="M32 52C31.722 52 31.457 51.884 31.267 51.681 30.726 51.097 18 37.274 18 27 18 19.28 24.28 13 32 13S46 19.28 46 27C46 37.274 33.274 51.097 32.733 51.681 32.543 51.884 32.278 52 32 52M32 15C25.383 15 20 20.383 20 27 20 35.146 29.29 46.391 32 49.497 34.71 46.391 44 35.146 44 27 44 20.383 38.617 15 32 15" fill="black"></path><path d="M32 36C27.038 36 23 31.962 23 27S27.038 18 32 18C36.963 18 41 22.038 41 27S36.963 36 32 36M32 20C28.14 20 25 23.14 25 27S28.14 34 32 34 39 30.86 39 27 35.859 20 32 20" fill="black"></path><path d="M34 26H33V25A1 1 0 0 0 31 25V26H30A1 1 0 0 0 30 28H31V29A1 1 0 0 0 33 29V28H34A1 1 0 1 0 34 26" fill="black"></path></svg></g></svg></g><g id="SvgjsG4684"><path d="M25.006 107.101v0c-0.208 0.508-0.496 0.798-0.866 0.87-0.374 0.062-0.732 0.023-1.076-0.117v0c-1.665-0.68-3.5-1.622-5.507-2.826-2.01-1.214-3.975-2.494-5.893-3.841v0c-1.618-1.157-3.098-2.317-4.44-3.48-1.338-1.154-2.42-2.134-3.248-2.939v0c-1.157-1.162-1.948-2.274-2.374-3.337-0.426-1.063-0.431-2.103-0.016-3.121v0c0.306-0.75 0.828-1.319 1.565-1.707 0.737-0.389 1.772-0.374 3.106 0.045v0c1.615 0.474 3.258 0.926 4.929 1.356 1.67 0.43 3.211 0.777 4.622 1.042 1.405 0.262 2.517 0.39 3.336 0.383v0c0.715 0.01 1.166-0.213 1.352-0.671v0c0.208-0.508 0.064-1.082-0.431-1.722v0c-0.442-0.588-1.093-1.291-1.952-2.109-0.851-0.822-1.766-1.659-2.745-2.51-0.979-0.852-1.879-1.616-2.7-2.293v0c-0.874-0.765-1.735-1.579-2.583-2.444-0.857-0.861-1.482-1.78-1.877-2.757-0.403-0.973-0.391-1.983 0.037-3.032v0c0.394-0.966 1.003-1.522 1.826-1.667 0.829-0.143 1.953 0.074 3.37 0.653v0c1.099 0.449 2.237 0.958 3.413 1.527v0c0.689 0.311 1.392 0.639 2.111 0.984 0.722 0.339 1.47 0.667 2.245 0.983v0c1.207 0.493 2.503 0.951 3.887 1.376 1.39 0.427 2.75 0.7 4.079 0.82 1.323 0.118 2.536-0.021 3.639-0.416v0c0.27-0.134 0.562-0.241 0.876-0.32 0.312-0.073 0.617-0.049 0.916 0.073v0c0.667 0.272 1.132 0.877 1.394 1.815 0.259 0.928 0.201 1.85-0.173 2.765v0c-0.337 0.826-0.856 1.333-1.555 1.522-0.704 0.18-1.559 0.205-2.566 0.075v0c-1.234-0.192-2.517-0.498-3.852-0.916-1.328-0.416-2.595-0.87-3.802-1.363v0c-1.925-0.786-3.671-1.584-5.239-2.395-1.558-0.814-2.725-1.379-3.5-1.695v0c-0.426-0.174-0.757-0.261-0.994-0.262-0.237 0-0.42 0.158-0.55 0.476v0c-0.153 0.375-0.113 0.758 0.12 1.15 0.233 0.392 0.611 0.791 1.135 1.197v0c0.982 0.809 2.028 1.688 3.137 2.638 1.107 0.956 2.182 1.918 3.226 2.885 1.041 0.973 1.935 1.924 2.683 2.852v0c0.873 1.076 1.358 2.048 1.455 2.918 0.103 0.873 0.007 1.671-0.288 2.396v0c-0.459 1.125-1.163 1.831-2.111 2.118-0.945 0.281-1.901 0.38-2.868 0.297v0c-1.293-0.12-2.931-0.411-4.914-0.872-1.981-0.468-4.165-1.111-6.552-1.93v0c-1.015-0.347-1.641-0.229-1.88 0.356v0c-0.265 0.648 0.009 1.357 0.823 2.126v0c0.83 0.709 1.835 1.479 3.015 2.31 1.177 0.822 2.436 1.606 3.777 2.353 1.332 0.751 2.681 1.406 4.046 1.964v0c1.156 0.472 2.183 0.836 3.08 1.09 0.897 0.255 1.72 0.535 2.47 0.842v0c0.534 0.218 0.89 0.608 1.068 1.17 0.181 0.556 0.237 1.146 0.167 1.769-0.072 0.63-0.19 1.146-0.353 1.546z" fill="black"></path><path d="M48.923 62.279v0c-1.15 1.301-2.481 1.988-3.994 2.062-1.513 0.074-3.03-0.562-4.552-1.908v0c-1.08-0.955-1.968-2.12-2.665-3.497-0.702-1.372-1.133-2.843-1.293-4.414-0.155-1.566 0.006-3.141 0.482-4.726 0.471-1.59 1.329-3.089 2.575-4.498v0c1.15-1.301 2.358-2.216 3.624-2.747 1.256-0.529 2.264-0.458 3.026 0.215v0c0.195 0.173 0.429 0.421 0.702 0.745 0.277 0.318 0.484 0.597 0.62 0.837v0c0.12 0.216 0.198 0.445 0.232 0.686 0.035 0.251-0.034 0.474-0.207 0.669v0c-0.073 0.082-0.249 0.215-0.53 0.397v0c0.375 0.487 0.763 0.945 1.164 1.373 0.391 0.428 0.802 0.833 1.234 1.215v0c0.828 0.732 1.672 1.254 2.533 1.565 0.856 0.317 1.688 0.173 2.497-0.431v0c0.214-0.159 0.417-0.259 0.609-0.3 0.192-0.041 0.429 0.064 0.712 0.314v0c0.237 0.209 0.488 0.536 0.753 0.982 0.266 0.446 0.395 0.968 0.388 1.566-0.002 0.593-0.281 1.204-0.835 1.831v0c-0.75 0.848-1.636 1.224-2.659 1.126-1.022-0.088-2.106-0.639-3.252-1.652v0c0.541 1.523 0.751 3.032 0.628 4.527-0.122 1.495-0.719 2.85-1.792 4.063zM46.458 58.244v0c0.768-0.869 1.173-1.871 1.215-3.006 0.041-1.145-0.186-2.267-0.681-3.364v0c-0.31-0.696-0.717-1.381-1.22-2.055-0.499-0.679-1.033-1.308-1.604-1.885v0c-0.502 0.216-1.016 0.512-1.543 0.89-0.531 0.383-1.026 0.834-1.485 1.353v0c-1.173 1.327-1.748 2.76-1.726 4.3 0.022 1.55 0.62 2.843 1.792 3.879v0c0.869 0.768 1.78 1.147 2.732 1.137 0.952-0.01 1.792-0.426 2.52-1.249z" fill="black"></path><path d="M71.386 41.349v0c-0.382 0.256-0.731 0.394-1.047 0.416-0.316 0.022-0.545-0.147-0.687-0.507v0c-0.423-1.212-0.905-2.413-1.445-3.604-0.531-1.189-1.127-2.276-1.788-3.263v0c-0.855-1.278-1.556-2.159-2.103-2.643-0.553-0.481-1.039-0.75-1.458-0.808-0.421-0.049-0.862-0.005-1.325 0.13v0c-0.217 0.046-0.431 0.053-0.642 0.022-0.211-0.032-0.39-0.156-0.535-0.373v0c-0.225-0.337-0.344-0.798-0.356-1.385-0.007-0.59 0.128-1.197 0.405-1.819 0.281-0.617 0.735-1.136 1.362-1.556v0c0.816-0.546 1.575-0.645 2.278-0.298 0.703 0.347 1.36 0.977 1.971 1.889v0c-0.212-1.254-0.187-2.377 0.073-3.369 0.261-0.992 0.87-1.809 1.829-2.451v0c0.65-0.435 1.289-0.652 1.918-0.651 0.628 0.001 1.158 0.323 1.589 0.968v0c0.435 0.65 0.631 1.399 0.586 2.246-0.044 0.847-0.28 1.414-0.707 1.7v0c-0.074 0.05-0.167 0.095-0.28 0.138-0.112 0.042-0.235 0.038-0.368-0.014v0c-0.569-0.172-1.082-0.106-1.539 0.2v0c-0.702 0.47-1.009 1.336-0.923 2.6 0.08 1.268 0.635 2.726 1.664 4.374v0c0.429 0.58 0.86 1.18 1.291 1.799 0.428 0.614 0.739 1.067 0.933 1.358v0c0.596 0.89 0.838 1.789 0.727 2.697-0.105 0.904-0.58 1.639-1.423 2.204z" fill="black"></path><path d="M93.454 29.099v0c-0.296 0.109-0.612 0.127-0.946 0.052-0.335-0.074-0.532-0.272-0.592-0.593v0c-0.395-2.32-0.861-4.653-1.398-7.001-0.543-2.345-1.236-4.658-2.076-6.938v0c-0.741-2.009-1.48-3.803-2.216-5.382-0.736-1.579-1.747-2.98-3.032-4.203v0c-0.247-0.253-0.451-0.47-0.614-0.652-0.158-0.19-0.273-0.382-0.344-0.575v0c-0.19-0.515-0.079-1.127 0.333-1.835 0.421-0.704 0.972-1.182 1.655-1.433v0c0.972-0.359 1.855-0.008 2.649 1.052 0.796 1.067 1.624 2.766 2.483 5.097v0c1.033 2.801 1.768 5.299 2.205 7.494 0.445 2.199 0.745 3.884 0.9 5.056v0l0.196 0.026c0.049-1.532 0.267-3.072 0.655-4.62 0.383-1.539 0.975-2.92 1.774-4.144 0.802-1.218 1.853-2.066 3.154-2.546v0c1.281-0.473 2.407-0.456 3.376 0.049 0.976 0.503 1.658 1.283 2.048 2.339v0c0.461 1.249 0.424 2.528-0.11 3.838-0.54 1.311-1.409 2.557-2.604 3.737v0c0.694 0.79 1.465 1.332 2.312 1.627 0.845 0.288 1.77 0.247 2.774-0.124v0c0.328-0.121 0.591-0.251 0.789-0.39v0c0.319-0.206 0.619 0.072 0.9 0.832v0c0.159 0.431 0.259 0.95 0.3 1.557 0.039 0.6-0.108 1.185-0.44 1.753-0.332 0.569-0.971 1.027-1.917 1.377v0c-1.281 0.473-2.459 0.483-3.533 0.03-1.074-0.452-2.04-1.146-2.897-2.081-0.855-0.928-1.605-1.892-2.251-2.889v0c-0.583-0.926-0.437-1.58 0.44-1.962v0c0.906-0.459 1.602-1.041 2.088-1.747 0.479-0.704 0.579-1.435 0.298-2.195v0c-0.321-0.869-0.903-1.148-1.746-0.837v0c-0.541 0.2-1.019 0.599-1.435 1.199-0.406 0.604-0.748 1.264-1.025 1.98-0.277 0.717-0.469 1.387-0.574 2.012v0c-0.144 0.858-0.243 1.681-0.297 2.468-0.044 0.792-0.038 1.561 0.018 2.309v0l0.602 1.632c0.371 1.005 0.386 1.939 0.047 2.803-0.346 0.867-0.996 1.476-1.949 1.828z" fill="black"></path><path d="M130.279 20.097v0c-2.187 0.197-3.95-0.278-5.286-1.425-1.343-1.14-2.116-2.834-2.319-5.084v0c-0.184-2.044 0.096-3.944 0.84-5.699 0.744-1.755 1.827-3.197 3.248-4.324 1.428-1.128 3.048-1.774 4.86-1.937v0c1.729-0.156 3.152 0.143 4.267 0.897 1.115 0.754 1.737 1.838 1.865 3.253v0c0.101 1.121-0.15 2.191-0.755 3.211-0.612 1.013-1.466 1.852-2.564 2.515-1.105 0.665-2.364 1.061-3.779 1.189v0c-1.729 0.156-3.176-0.106-4.34-0.787v0c0.147 1.324 0.698 2.349 1.652 3.076 0.955 0.727 2.122 1.028 3.503 0.904v0c0.834-0.075 1.678-0.303 2.533-0.684 0.855-0.38 1.573-0.859 2.155-1.434v0c0.372-0.385 0.732-0.593 1.08-0.625v0c0.287-0.026 0.535 0.048 0.744 0.222 0.201 0.168 0.315 0.395 0.341 0.683v0c0.057 0.636-0.414 1.522-1.414 2.66v0c-1.768 2.02-3.978 3.15-6.631 3.389zM130.019 9.876v0c1.032-0.093 1.877-0.386 2.536-0.879 0.651-0.5 0.947-1.081 0.887-1.745v0c-0.049-0.547-0.32-0.95-0.812-1.208-0.485-0.259-1.131-0.353-1.938-0.28v0c-1.066 0.096-1.971 0.46-2.713 1.092-0.742 0.632-1.242 1.47-1.499 2.513v0c0.427 0.223 0.964 0.378 1.613 0.464 0.649 0.086 1.291 0.101 1.926 0.043z" fill="black"></path><path d="M160.405 21.244v0c-1.743-0.27-2.905-1.044-3.485-2.321-0.58-1.277-0.728-2.832-0.444-4.663v0c0.102-0.658 0.238-1.293 0.409-1.906 0.166-0.62 0.341-1.239 0.528-1.856v0c0.186-0.617 0.366-1.218 0.539-1.802 0.182-0.59 0.342-1.152 0.48-1.686v0c-0.623 0.077-1.237 0.069-1.84-0.025v0c-0.631-0.098-0.906-0.404-0.826-0.919v0c0.084-0.543 0.431-1.169 1.041-1.881 0.61-0.711 1.338-1.394 2.182-2.048 0.852-0.66 1.682-1.198 2.49-1.614 0.814-0.416 1.479-0.583 1.995-0.504v0c0.631 0.098 0.862 0.689 0.694 1.775v0c-0.044 0.285-0.113 0.573-0.207 0.864-0.088 0.299-0.183 0.6-0.286 0.903v0c0.56-0.031 1.125-0.044 1.694-0.039 0.57-0.002 1.112 0.037 1.628 0.116v0c0.658 0.102 1.149 0.296 1.472 0.583 0.318 0.278 0.426 0.747 0.325 1.404v0c-0.107 0.692-0.377 1.355-0.809 1.99-0.438 0.634-0.858 0.919-1.258 0.857v0c-0.081-0.013-0.222-0.048-0.421-0.107-0.192-0.058-0.426-0.139-0.701-0.244v0c-0.359-0.146-0.821-0.304-1.385-0.475-0.556-0.176-1.234-0.327-2.035-0.45v0c-0.341 0.857-0.662 1.738-0.961 2.643-0.3 0.905-0.508 1.731-0.624 2.476v0c-0.256 1.655-0.018 2.848 0.717 3.58 0.742 0.726 1.899 1.211 3.473 1.455v0c0.482 0.075 0.812 0.206 0.991 0.393 0.171 0.193 0.226 0.49 0.164 0.89v0c-0.146 0.943-0.755 1.668-1.827 2.176-1.072 0.508-2.31 0.653-3.713 0.435z" fill="black"></path><path d="M203.333 37.423v0c-0.924-0.655-1.151-1.313-0.683-1.973v0c0.131-0.185 0.342-0.405 0.634-0.662v0c2.257-2.127 4.396-4.388 6.415-6.784v0c-0.422-0.165-0.739-0.322-0.952-0.473v0c-0.235-0.167-0.204-0.46 0.094-0.88v0c0.405-0.571 1-1.108 1.786-1.611 0.784-0.512 1.484-0.799 2.099-0.859v0c0.885-1.248 1.595-2.314 2.129-3.198 0.54-0.879 0.95-1.695 1.23-2.447 0.29-0.753 0.47-1.552 0.538-2.395v0c0.022-0.481 0.09-0.803 0.205-0.965v0c0.218-0.308 0.592-0.497 1.122-0.568 0.524-0.074 1.092-0.05 1.703 0.072 0.61 0.113 1.116 0.312 1.52 0.598v0c0.756 0.536 1.019 1.227 0.788 2.074-0.23 0.846-0.73 1.813-1.5 2.899v0c-0.392 0.505-0.967 1.216-1.727 2.132-0.75 0.915-1.7 2.029-2.851 3.343v0c1.553 0.967 3.055 1.927 4.507 2.881 1.448 0.96 2.822 1.9 4.121 2.822v0l2.62 1.858 0.702-0.991c1.457-2.055 2.468-4.055 3.033-6.002v0c0.114-0.517 0.231-0.859 0.35-1.027v0c0.334-0.47 0.946-0.693 1.836-0.667 0.887 0.031 1.66 0.281 2.321 0.75v0c0.728 0.516 1.031 1.127 0.909 1.832-0.131 0.707-0.54 1.544-1.226 2.512v0c-0.453 0.638-1.123 1.459-2.011 2.461-0.888 1.003-1.99 2.207-3.307 3.613v0c-1.388 1.506-2.52 2.752-3.396 3.738-0.88 0.991-1.614 1.901-2.201 2.73v0c-1.104 1.556-1.523 2.996-1.259 4.319v0c0.058 0.571-0.04 1.036-0.295 1.394v0c-0.385 0.543-1.042 0.793-1.969 0.749-0.932-0.038-1.846-0.375-2.742-1.011v0c-0.565-0.401-0.904-0.873-1.016-1.414-0.116-0.537 0.188-1.314 0.91-2.333v0c0.25-0.353 0.661-0.861 1.233-1.524 0.573-0.654 1.326-1.466 2.258-2.437v0c0.58-0.615 1.138-1.213 1.675-1.792 0.537-0.579 1.028-1.135 1.473-1.668v0c-0.313 0.098-0.59 0.15-0.83 0.156-0.235 0.01-0.473-0.087-0.714-0.292v0c-0.815-0.654-1.631-1.295-2.447-1.925-0.816-0.629-1.635-1.236-2.458-1.819v0c-1.724-1.223-3.44-2.28-5.147-3.171v0c-0.143 0.142-0.359 0.406-0.649 0.789-0.285 0.378-0.521 0.699-0.707 0.963v0c-0.719 1.013-1.416 2.097-2.091 3.25-0.675 1.154-1.267 2.19-1.775 3.108v0c-0.35 0.635-0.962 0.9-1.837 0.792-0.88-0.111-1.687-0.427-2.421-0.947z" fill="black"></path><path d="M234.355 65.213v0c-0.865-1.153-1.201-2.299-1.009-3.438 0.198-1.143 0.934-2.193 2.208-3.148v0c0.901-0.675 1.921-1.243 3.06-1.702v0c0.482-0.181 0.944-0.382 1.388-0.603 0.445-0.231 0.865-0.494 1.26-0.791v0c1.016-0.762 1.44-1.569 1.273-2.421v0c-0.125-0.841 0-1.402 0.373-1.682v0c0.368-0.276 0.856-0.397 1.464-0.364 0.603 0.037 1.198 0.196 1.785 0.476 0.593 0.276 1.064 0.647 1.415 1.114v0c0.988 1.318 0.403 2.786-1.755 4.404v0c-0.692 0.519-1.374 0.948-2.045 1.288-0.666 0.336-1.317 0.635-1.952 0.898v0c-0.443 0.187-0.872 0.388-1.285 0.603-0.415 0.225-0.759 0.44-1.034 0.646v0c-1.159 0.869-1.312 1.871-0.46 3.008v0c0.795 1.06 2.108 1.628 3.941 1.704 1.827 0.08 3.984-0.344 6.469-1.274v0l0.635-0.527c1.126-0.913 2.159-1.37 3.101-1.372 0.942-0.003 1.744 0.438 2.407 1.322v0c0.572 0.763 0.614 1.328 0.125 1.695v0c-0.159 0.119-0.391 0.246-0.694 0.378-0.294 0.134-0.657 0.274-1.089 0.418v0c-1.039 0.41-2.099 0.896-3.18 1.457-1.085 0.556-2.03 1.136-2.837 1.742v0c-0.906 0.679-1.548 1.379-1.926 2.099-0.383 0.725-0.393 1.547-0.029 2.467v0c0.134 0.225 0.197 0.44 0.187 0.645-0.01 0.205-0.176 0.428-0.501 0.671v0c-0.555 0.416-1.271 0.593-2.149 0.531-0.883-0.067-1.653-0.54-2.312-1.42v0c-1.268-1.691-0.71-3.43 1.673-5.217v0c0.417-0.313 1.07-0.747 1.958-1.301v0l-0.023-0.098c-4.842 1.357-8.323 0.621-10.442-2.208z" fill="black"></path><path d="M252.638 97.509v0c-0.386-0.999-0.541-1.925-0.466-2.778 0.078-0.847 0.28-1.646 0.608-2.398v0c-0.565-0.091-1.097-0.25-1.597-0.476-0.506-0.224-0.848-0.566-1.026-1.027v0c-0.114-0.295-0.136-0.61-0.067-0.946 0.069-0.336 0.264-0.536 0.585-0.601v0c2.313-0.43 4.633-0.929 6.96-1.496 2.324-0.574 4.632-1.303 6.924-2.188v0c1.921-0.742 3.691-1.503 5.31-2.283 1.619-0.78 2.997-1.794 4.133-3.042v0c0.217-0.238 0.429-0.452 0.635-0.642 0.209-0.184 0.422-0.317 0.639-0.402v0c0.512-0.198 1.125-0.096 1.84 0.305 0.71 0.41 1.196 0.954 1.458 1.633v0c0.373 0.967 0.036 1.855-1.012 2.664-1.055 0.812-2.741 1.666-5.059 2.561v0c-1.972 0.762-3.808 1.371-5.507 1.829-1.702 0.451-3.177 0.793-4.427 1.026v0c1.888 0.146 3.632 0.661 5.232 1.544 1.602 0.89 2.72 2.157 3.355 3.802v0c0.635 1.645 0.585 3.144-0.151 4.495-0.734 1.358-2.032 2.396-3.895 3.116v0c-1.377 0.532-2.801 0.835-4.273 0.911-1.481 0.072-2.897-0.08-4.248-0.456-1.361-0.38-2.562-0.994-3.603-1.842-1.044-0.855-1.827-1.958-2.348-3.309zM257.377 96.749v0c0.593 1.537 1.536 2.538 2.826 3.003 1.297 0.463 2.579 0.449 3.847-0.04v0c1.108-0.428 1.848-1.063 2.221-1.907 0.373-0.843 0.367-1.764-0.018-2.762v0c-0.386-0.999-1.034-1.771-1.944-2.318-0.912-0.553-1.965-0.907-3.159-1.064-1.194-0.157-2.415-0.167-3.664-0.031v0c-0.349 0.849-0.531 1.721-0.546 2.617-0.011 0.887 0.135 1.721 0.437 2.502z" fill="black"></path><path d="M7.355 140.353c0-1.868 1.514-3.383 3.382-3.383 1.868 0 3.383 1.514 3.383 3.383 0 1.868-1.514 3.383-3.383 3.382-1.868 0-3.383-1.514-3.382-3.382z" fill="black"></path><path d="M266.795 140.353c0-1.868 1.514-3.383 3.382-3.383 1.868 0 3.383 1.514 3.383 3.383 0 1.868-1.514 3.383-3.383 3.382-1.868 0-3.383-1.514-3.382-3.382z" fill="black"></path></g><g id="SvgjsG4683"><path d="M7.324 180.934v0c-0.214-0.52-0.212-0.937 0.009-1.251 0.226-0.316 0.517-0.547 0.872-0.693v0c1.701-0.701 3.716-1.33 6.047-1.89 2.331-0.559 4.683-1.038 7.057-1.437v0c2.014-0.318 3.925-0.537 5.731-0.657 1.812-0.123 3.311-0.187 4.496-0.193v0c1.67 0.017 3.043 0.261 4.12 0.73 1.077 0.469 1.829 1.225 2.258 2.266v0c0.316 0.768 0.345 1.558 0.086 2.369-0.259 0.812-1.027 1.544-2.302 2.196v0c-1.519 0.819-3.041 1.672-4.568 2.561-1.523 0.88-2.895 1.731-4.115 2.552-1.211 0.826-2.114 1.535-2.709 2.129v0c-0.526 0.506-0.694 0.991-0.503 1.454v0c0.214 0.52 0.731 0.838 1.551 0.954v0c0.749 0.107 1.729 0.152 2.94 0.136 1.208-0.023 2.475-0.073 3.801-0.152 1.332-0.081 2.539-0.17 3.62-0.266v0c1.187-0.073 2.402-0.099 3.643-0.076 1.245 0.014 2.364 0.233 3.355 0.656 0.991 0.423 1.707 1.171 2.148 2.243v0c0.405 0.984 0.359 1.827-0.138 2.529-0.498 0.702-1.473 1.353-2.926 1.952v0c-1.123 0.463-2.317 0.906-3.583 1.331v0c-0.721 0.267-1.469 0.534-2.242 0.801-0.771 0.273-1.553 0.573-2.346 0.899v0c-1.231 0.507-2.507 1.103-3.828 1.789-1.318 0.692-2.505 1.47-3.559 2.334-1.054 0.865-1.838 1.837-2.351 2.917v0c-0.108 0.297-0.249 0.585-0.423 0.865-0.168 0.277-0.404 0.478-0.709 0.603v0c-0.685 0.282-1.456 0.177-2.312-0.316-0.863-0.491-1.486-1.203-1.871-2.136v0c-0.35-0.85-0.338-1.594 0.038-2.231 0.382-0.64 0.99-1.273 1.824-1.898v0c1.034-0.752 2.185-1.453 3.454-2.102 1.276-0.652 2.529-1.231 3.76-1.738v0c1.974-0.813 3.82-1.484 5.539-2.015 1.716-0.536 2.971-0.968 3.765-1.294v0c0.438-0.18 0.745-0.355 0.92-0.524 0.169-0.166 0.187-0.411 0.053-0.735v0c-0.159-0.387-0.464-0.64-0.914-0.759-0.45-0.119-1.01-0.137-1.681-0.054v0c-1.295 0.118-2.69 0.228-4.183 0.332-1.5 0.106-2.978 0.176-4.434 0.212-1.459 0.044-2.794-0.007-4.005-0.154v0c-1.414-0.152-2.466-0.509-3.157-1.071-0.7-0.565-1.202-1.216-1.506-1.952v0c-0.476-1.155-0.469-2.175 0.02-3.059 0.48-0.888 1.102-1.649 1.866-2.283v0c1.031-0.848 2.438-1.813 4.218-2.896 1.778-1.089 3.833-2.191 6.165-3.307v0c0.985-0.473 1.354-1.011 1.106-1.613v0c-0.269-0.654-0.975-0.971-2.119-0.954v0c-1.12 0.075-2.407 0.238-3.863 0.489-1.452 0.242-2.935 0.57-4.448 0.986-1.514 0.416-2.969 0.911-4.365 1.486v0c-1.18 0.486-2.189 0.957-3.025 1.414-0.837 0.456-1.639 0.842-2.407 1.158v0c-0.546 0.225-1.083 0.201-1.61-0.072-0.531-0.279-0.997-0.673-1.4-1.182-0.403-0.51-0.689-0.971-0.86-1.383z" fill="black"></path><path d="M34.722 231.67v0c-1.183-1.327-1.718-2.762-1.606-4.307 0.108-1.549 0.936-3.014 2.483-4.393v0c1.107-0.987 2.4-1.754 3.88-2.3 1.479-0.537 3.025-0.794 4.638-0.77 1.617 0.029 3.203 0.385 4.758 1.067 1.556 0.672 2.976 1.728 4.26 3.168v0c1.183 1.327 1.965 2.662 2.344 4.006 0.39 1.345 0.198 2.362-0.576 3.052v0c-0.2 0.178-0.482 0.388-0.845 0.629-0.354 0.242-0.661 0.419-0.92 0.531v0c-0.239 0.093-0.485 0.142-0.738 0.147-0.253 0.005-0.469-0.092-0.647-0.292v0c-0.078-0.087-0.191-0.281-0.338-0.581v0c-0.548 0.323-1.061 0.661-1.538 1.013-0.482 0.347-0.945 0.719-1.391 1.116v0c-0.84 0.749-1.471 1.542-1.894 2.378-0.427 0.831-0.384 1.694 0.129 2.589v0c0.137 0.236 0.214 0.457 0.232 0.662 0.023 0.201-0.11 0.429-0.397 0.685v0c-0.241 0.215-0.606 0.43-1.094 0.644-0.484 0.21-1.03 0.279-1.638 0.205-0.603-0.078-1.19-0.438-1.761-1.078v0c-0.767-0.861-1.044-1.805-0.829-2.832 0.214-1.028 0.908-2.065 2.081-3.111v0c-1.611 0.37-3.17 0.399-4.679 0.089-1.504-0.305-2.809-1.077-3.914-2.317zM39.124 229.662v0c0.786 0.881 1.757 1.413 2.913 1.596 1.156 0.183 2.321 0.087 3.495-0.289v0c0.752-0.229 1.502-0.558 2.251-0.986 0.744-0.434 1.447-0.904 2.108-1.411v0c-0.159-0.529-0.4-1.087-0.721-1.674-0.326-0.583-0.727-1.14-1.202-1.673v0c-1.201-1.347-2.589-2.105-4.164-2.273-1.576-0.158-2.96 0.295-4.154 1.359v0c-0.886 0.79-1.381 1.668-1.486 2.634-0.109 0.971 0.211 1.876 0.96 2.717z" fill="black"></path><path d="M61.023 255.564v0c-0.394-0.262-0.665-0.537-0.812-0.824-0.143-0.293-0.071-0.575 0.215-0.845v0c0.975-0.885 1.922-1.813 2.84-2.786 0.912-0.976 1.704-1.97 2.377-2.982v0c0.87-1.309 1.426-2.32 1.668-3.032 0.243-0.712 0.307-1.275 0.195-1.688-0.119-0.417-0.335-0.816-0.65-1.198v0c-0.122-0.188-0.21-0.391-0.264-0.608-0.057-0.211-0.012-0.428 0.136-0.651v0c0.232-0.349 0.623-0.641 1.175-0.875 0.546-0.239 1.17-0.347 1.873-0.326 0.697 0.018 1.365 0.24 2.005 0.665v0c0.84 0.558 1.234 1.236 1.182 2.034-0.05 0.807-0.387 1.68-1.009 2.617v0c1.097-0.696 2.168-1.118 3.213-1.264 1.035-0.144 2.047 0.112 3.036 0.769v0c0.669 0.444 1.125 0.961 1.368 1.551 0.248 0.594 0.152 1.222-0.289 1.885v0c-0.444 0.669-1.076 1.148-1.893 1.437-0.816 0.298-1.447 0.299-1.893 0.002v0c-0.074-0.049-0.151-0.121-0.229-0.213-0.082-0.087-0.128-0.204-0.138-0.351v0c-0.058-0.607-0.324-1.068-0.799-1.384v0c-0.715-0.475-1.655-0.424-2.82 0.153-1.166 0.577-2.321 1.676-3.465 3.297v0c-0.387 0.633-0.788 1.273-1.202 1.921-0.418 0.654-0.724 1.126-0.917 1.418v0c-0.608 0.915-1.361 1.502-2.258 1.762-0.9 0.251-1.782 0.089-2.645-0.484z" fill="black"></path><path d="M86.935 269.699v0c-0.303-0.111-0.563-0.309-0.78-0.594-0.211-0.282-0.232-0.564-0.063-0.845v0c1.236-2.076 2.42-4.208 3.551-6.396 1.131-2.188 2.125-4.451 2.982-6.79v0c0.754-2.056 1.369-3.943 1.845-5.662 0.47-1.721 0.612-3.485 0.427-5.293v0c-0.031-0.355-0.047-0.66-0.047-0.916-0.003-0.25 0.031-0.475 0.104-0.675v0c0.194-0.528 0.688-0.929 1.482-1.2 0.796-0.278 1.543-0.29 2.238-0.035v0c0.999 0.366 1.458 1.229 1.376 2.588-0.088 1.357-0.57 3.23-1.446 5.621v0c-1.051 2.868-2.134 5.303-3.249 7.307-1.117 2.01-2.004 3.523-2.662 4.54v0l0.143 0.15c1.055-1.163 2.246-2.218 3.572-3.164 1.329-0.953 2.706-1.64 4.132-2.06 1.435-0.424 2.822-0.391 4.163 0.101v0c1.308 0.48 2.174 1.239 2.597 2.278 0.423 1.04 0.435 2.104 0.035 3.193v0c-0.468 1.276-1.347 2.248-2.636 2.916-1.281 0.663-2.782 1.06-4.504 1.188v0c0.016 1.073 0.259 2.006 0.728 2.8 0.465 0.785 1.214 1.366 2.245 1.744v0c0.335 0.123 0.623 0.195 0.863 0.218v0c0.398 0.051 0.454 0.466 0.168 1.246v0c-0.163 0.445-0.431 0.917-0.804 1.416-0.371 0.493-0.875 0.852-1.514 1.078-0.63 0.222-1.434 0.154-2.414-0.205v0c-1.302-0.477-2.224-1.25-2.768-2.319-0.54-1.06-0.832-2.238-0.876-3.534-0.051-1.298 0.003-2.55 0.16-3.757v0c0.159-1.111 0.705-1.525 1.64-1.241v0c1.02 0.249 1.949 0.257 2.787 0.024 0.843-0.225 1.407-0.727 1.693-1.507v0c0.326-0.889 0.057-1.492-0.807-1.809v0c-0.554-0.203-1.191-0.21-1.911-0.021-0.716 0.198-1.42 0.484-2.113 0.86-0.695 0.381-1.291 0.78-1.788 1.197v0c-0.683 0.568-1.304 1.145-1.862 1.73-0.564 0.583-1.071 1.186-1.519 1.812v0l-0.61 1.662c-0.378 1.031-0.989 1.772-1.834 2.222-0.843 0.444-1.75 0.488-2.724 0.132z" fill="black"></path><path d="M128.74 279.955v0c-2.242-0.199-3.935-0.997-5.079-2.394-1.137-1.396-1.603-3.243-1.399-5.54v0c0.186-2.099 0.814-3.962 1.881-5.59 1.069-1.635 2.421-2.893 4.057-3.774 1.642-0.881 3.393-1.238 5.252-1.073v0c1.771 0.157 3.147 0.721 4.129 1.69 0.989 0.963 1.42 2.169 1.291 3.618v0c-0.102 1.149-0.552 2.18-1.35 3.095-0.79 0.908-1.802 1.597-3.036 2.066-1.234 0.469-2.572 0.64-4.014 0.511v0c-1.771-0.157-3.185-0.683-4.243-1.576v0c-0.086 1.357 0.282 2.488 1.104 3.395 0.829 0.907 1.951 1.424 3.366 1.55v0c0.861 0.077 1.754 0.001 2.677-0.227 0.93-0.227 1.743-0.579 2.44-1.055v0c0.442-0.319 0.84-0.463 1.196-0.431v0c0.294 0.026 0.532 0.144 0.712 0.353 0.174 0.208 0.249 0.46 0.223 0.754v0c-0.058 0.649-0.698 1.457-1.921 2.423v0c-2.143 1.711-4.572 2.446-7.286 2.205zM130.331 269.606v0c1.06 0.094 1.964-0.046 2.715-0.42 0.744-0.382 1.146-0.911 1.205-1.588v0c0.05-0.561-0.147-1.019-0.591-1.376-0.444-0.35-1.08-0.561-1.907-0.634v0c-1.087-0.097-2.063 0.106-2.927 0.608-0.865 0.502-1.52 1.253-1.968 2.254v0c0.393 0.304 0.908 0.56 1.544 0.768 0.637 0.201 1.28 0.331 1.929 0.388z" fill="black"></path><path d="M163.434 278.634v0c-1.784 0.277-3.154-0.118-4.112-1.185-0.964-1.066-1.591-2.535-1.881-4.407v0c-0.104-0.671-0.169-1.335-0.195-1.991-0.025-0.656-0.044-1.313-0.055-1.971v0c-0.012-0.658-0.021-1.302-0.029-1.933-0.008-0.631-0.027-1.229-0.06-1.793v0c-0.583 0.271-1.183 0.454-1.8 0.55v0c-0.644 0.1-1.007-0.111-1.088-0.633v0c-0.086-0.556 0.056-1.276 0.426-2.16 0.377-0.885 0.877-1.782 1.499-2.692 0.624-0.902 1.267-1.683 1.929-2.341 0.662-0.658 1.257-1.028 1.786-1.11v0c0.644-0.1 1.053 0.406 1.226 1.518v0c0.045 0.292 0.068 0.597 0.069 0.917 0.007 0.312 0.005 0.635-0.006 0.97v0c0.537-0.208 1.087-0.401 1.65-0.579 0.556-0.177 1.095-0.305 1.617-0.387v0c0.678-0.105 1.219-0.068 1.622 0.113 0.402 0.174 0.656 0.6 0.761 1.278v0c0.108 0.699 0.048 1.427-0.182 2.185-0.23 0.758-0.548 1.168-0.955 1.232v0c-0.088 0.014-0.237 0.019-0.445 0.017-0.208 0.004-0.465-0.001-0.774-0.016v0c-0.393-0.029-0.889-0.043-1.485-0.04-0.596 0.009-1.304 0.077-2.125 0.205v0c-0.07 0.935-0.109 1.892-0.117 2.872-0.015 0.975 0.036 1.842 0.153 2.602v0c0.264 1.702 0.867 2.793 1.81 3.272 0.944 0.486 2.222 0.603 3.837 0.353v0c0.495-0.077 0.857-0.05 1.085 0.081 0.235 0.13 0.385 0.399 0.448 0.806v0c0.15 0.97-0.221 1.868-1.113 2.694-0.893 0.826-2.058 1.351-3.496 1.574z" fill="black"></path><path d="M213.972 259.258v0c-0.942 0.665-1.651 0.66-2.126-0.013v0c-0.138-0.196-0.282-0.477-0.43-0.843v0c-1.287-2.897-2.745-5.732-4.374-8.505v0c-0.288 0.354-0.541 0.608-0.759 0.762v0c-0.241 0.17-0.516 0.036-0.825-0.401v0c-0.411-0.583-0.729-1.338-0.953-2.263-0.223-0.935-0.259-1.707-0.109-2.316v0c-0.906-1.284-1.692-2.334-2.36-3.149-0.665-0.824-1.314-1.5-1.946-2.028-0.631-0.538-1.342-0.981-2.135-1.33v0c-0.45-0.186-0.737-0.366-0.859-0.54v0c-0.222-0.314-0.276-0.737-0.165-1.269 0.112-0.532 0.328-1.071 0.649-1.617 0.322-0.555 0.688-0.977 1.098-1.266v0c0.774-0.546 1.531-0.563 2.269-0.05 0.745 0.508 1.508 1.317 2.292 2.427v0c0.348 0.553 0.838 1.349 1.471 2.39 0.627 1.044 1.382 2.347 2.264 3.908v0c1.454-1.177 2.892-2.3 4.314-3.37 1.417-1.075 2.79-2.081 4.119-3.018v0l2.692-1.899-0.717-1.018c-1.487-2.109-3.075-3.765-4.764-4.968v0c-0.457-0.291-0.745-0.52-0.863-0.688v0c-0.344-0.488-0.352-1.154-0.024-1.999 0.328-0.845 0.832-1.506 1.51-1.985v0c0.752-0.53 1.448-0.614 2.09-0.252 0.636 0.366 1.304 1.045 2.005 2.038v0c0.463 0.656 1.024 1.583 1.684 2.781 0.669 1.199 1.458 2.675 2.366 4.428v0c0.976 1.848 1.79 3.365 2.442 4.552 0.661 1.188 1.291 2.206 1.888 3.053v0c1.127 1.599 2.376 2.494 3.746 2.686v0c0.571 0.143 0.985 0.397 1.243 0.762v0c0.392 0.555 0.41 1.277 0.054 2.166-0.354 0.88-0.991 1.644-1.911 2.293v0c-0.583 0.411-1.157 0.581-1.72 0.507-0.558-0.077-1.205-0.637-1.941-1.68v0c-0.257-0.365-0.604-0.934-1.042-1.709-0.441-0.781-0.969-1.785-1.584-3.015v0c-0.399-0.768-0.785-1.512-1.158-2.232-0.379-0.716-0.749-1.378-1.112-1.987v0c-0.014 0.337-0.058 0.62-0.132 0.849-0.07 0.234-0.248 0.435-0.533 0.602v0c-0.905 0.563-1.8 1.127-2.686 1.693-0.887 0.575-1.755 1.162-2.601 1.759v0c-1.767 1.246-3.372 2.542-4.817 3.888v0c0.096 0.184 0.279 0.479 0.549 0.886 0.268 0.416 0.495 0.755 0.68 1.019v0c0.736 1.043 1.546 2.085 2.43 3.124 0.882 1.049 1.678 1.974 2.387 2.776v0c0.5 0.554 0.549 1.238 0.148 2.05-0.411 0.811-0.992 1.481-1.744 2.011z" fill="black"></path><path d="M249.64 227.432v0c-0.892 1.184-1.926 1.844-3.103 1.98-1.177 0.136-2.417-0.287-3.722-1.269v0c-0.921-0.694-1.768-1.538-2.54-2.532v0c-0.315-0.426-0.648-0.823-0.998-1.19-0.347-0.373-0.723-0.712-1.129-1.018v0c-1.042-0.785-1.955-0.975-2.741-0.57v0c-0.791 0.366-1.376 0.407-1.755 0.122v0c-0.384-0.289-0.645-0.735-0.783-1.338-0.139-0.603-0.152-1.236-0.04-1.898 0.108-0.657 0.34-1.222 0.696-1.693v0c1.016-1.349 2.623-1.195 4.821 0.461v0c0.713 0.537 1.331 1.084 1.856 1.643 0.52 0.564 1 1.119 1.44 1.664v0c0.304 0.384 0.624 0.745 0.961 1.085 0.333 0.345 0.642 0.625 0.927 0.84v0c1.184 0.892 2.212 0.76 3.083-0.397v0c0.822-1.091 1.011-2.546 0.569-4.366-0.452-1.818-1.486-3.822-3.102-6.01v0l-0.706-0.467c-1.217-0.848-1.959-1.734-2.226-2.657-0.267-0.923-0.062-1.834 0.615-2.733v0c0.591-0.784 1.132-0.99 1.626-0.618v0c0.17 0.128 0.361 0.319 0.573 0.573 0.218 0.259 0.457 0.58 0.717 0.965v0c0.7 0.896 1.478 1.796 2.335 2.7 0.857 0.904 1.703 1.669 2.536 2.297v0c0.921 0.694 1.79 1.125 2.608 1.295 0.814 0.175 1.623-0.049 2.427-0.673v0c0.183-0.197 0.379-0.32 0.588-0.369 0.199-0.048 0.466 0.055 0.8 0.306v0c0.565 0.425 0.944 1.08 1.137 1.965 0.188 0.88-0.059 1.773-0.741 2.677v0c-1.301 1.727-3.171 1.671-5.61-0.166v0c-0.428-0.322-1.039-0.839-1.836-1.55v0l-0.082 0.041c2.709 4.378 2.975 8.011 0.799 10.9z" fill="black"></path><path d="M270.615 190.511v0c-0.396 1.017-0.916 1.823-1.56 2.42-0.642 0.59-1.346 1.056-2.114 1.398v0c0.36 0.457 0.653 0.943 0.88 1.458 0.227 0.515 0.248 1.01 0.063 1.483v0c-0.117 0.301-0.32 0.557-0.608 0.768-0.286 0.205-0.568 0.221-0.847 0.046v0c-2.051-1.277-4.153-2.5-6.304-3.669-2.152-1.169-4.402-2.211-6.749-3.125v0c-1.957-0.762-3.819-1.409-5.585-1.942-1.769-0.527-3.509-0.711-5.221-0.552v0c-0.33 0.034-0.638 0.05-0.925 0.049-0.287-0.001-0.542-0.045-0.766-0.133v0c-0.524-0.204-0.915-0.706-1.17-1.505-0.262-0.802-0.259-1.548 0.009-2.239v0c0.386-0.991 1.257-1.433 2.615-1.324 1.355 0.115 3.218 0.634 5.591 1.558v0c2.015 0.784 3.825 1.592 5.431 2.423 1.6 0.829 2.951 1.587 4.053 2.274v0c-1.33-1.409-2.294-2.999-2.893-4.772-0.596-1.779-0.567-3.509 0.088-5.191v0c0.657-1.688 1.731-2.791 3.221-3.309 1.488-0.511 3.185-0.395 5.091 0.347v0c1.407 0.548 2.693 1.302 3.858 2.264 1.171 0.964 2.139 2.055 2.902 3.273 0.77 1.22 1.253 2.513 1.451 3.879 0.197 1.366 0.027 2.739-0.511 4.121zM266.518 187.811v0c0.613-1.573 0.587-2.983-0.078-4.228-0.66-1.237-1.639-2.108-2.937-2.613v0c-1.132-0.441-2.129-0.472-2.991-0.093-0.862 0.379-1.492 1.08-1.891 2.104v0c-0.396 1.017-0.44 2.049-0.134 3.096 0.309 1.041 0.862 2.033 1.659 2.977 0.788 0.947 1.705 1.798 2.752 2.551v0c0.854-0.397 1.591-0.927 2.21-1.592 0.626-0.662 1.096-1.396 1.41-2.202z" fill="black"></path></g></svg></g></svg></g></svg></g><g></g></svg></g><defs><mask></mask></defs></svg><rect width="280" height="280" fill="black" stroke="none" visibility="hidden"></rect></g></mask></svg><rect width="280" height="280" fill="black" stroke="none" visibility="hidden"></rect></g></mask><linearGradient x1="0.054" x2="0.941" y1="0.5" y2="0.5" id="afee5167-87a3-421f-9017-215a42af3de6"><stop stop-color="#9c7945" offset="0"></stop><stop stop-color="#faf3aa" offset="0.498"></stop><stop stop-color="#9c7945" offset="1"></stop></linearGradient><rect width="280" height="280" fill="url(#afee5167-87a3-421f-9017-215a42af3de6)" mask="url(#9cbeabe7-1a8e-4c54-b3fb-b365dcdcaca8)" data-fill-palette-color="accent"></rect></svg><rect width="280" height="280" fill="none" stroke="none" visibility="hidden"></rect></g></svg></g></svg>